# xmcd CD database file
#
# Track frame offsets:
#	150
#	16844
#	32304
#	49438
#	73337
#	85291
#	94818
#	109475
#	121694
#	138588
#	150410
#	165099
#	186095
#	197318
#	214107
#	231317
#	247562
#	265074
#	279131
#	298014
#
# Disc length: 4136 seconds
#
# Revision: 0
# Processed by: cddbd v1.5.2PL0 Copyright (c) Steve Scherf et al.
# Submitted via: CDex 1.70beta2
#
DISCID=08102614
DTITLE=Vartious - Gympie Muster 2009 Country  - CD 3
DYEAR=2009
DGENRE=Country
TTITLE0=Troy Cassar-Daley - Sing About This Country
TTITLE1=Adam Harvey - Missing Heroes 
TTITLE2=Jonahs Road - Long Gone 
TTITLE3=The Borderers - Higher Ground 
TTITLE4=Mick Thomas and The Sure Thing - Can I Sleep on Your Floor? 
TTITLE5=Pixie Jenkins - Bushmans Rodeo 
TTITLE6=Brad Cole - Brazilian 
TTITLE7=Donella - Broken 
TTITLE8=Shirley Friend and The Naked Poets 
TTITLE9=Sweet Delores - Corporate Cowboy 
TTITLE10=Dave Prior - The Soup’s Too Hot 
TTITLE11=The Joelenes - The Tram Song 
TTITLE12=Connie Kis Andersen - Lounge Lizard 
TTITLE13=Anthony Classen - Something That You’ve Done 
TTITLE14=Tori Darke - Maybe It’s Just Me 
TTITLE15=Aaron Bolton - Comfortable 
TTITLE16=The Vibe - After Life 
TTITLE17=Shandell Tosoni - Take it or Leave it 
TTITLE18=Jason Lee - Meeting Like This 
TTITLE19=Uncle Bob’s Jug Band – Auctioneer
EXTD=YEAR: 2009
EXTT0=
EXTT1=
EXTT2=
EXTT3=
EXTT4=
EXTT5=
EXTT6=
EXTT7=
EXTT8=
EXTT9=
EXTT10=
EXTT11=
EXTT12=
EXTT13=
EXTT14=
EXTT15=
EXTT16=
EXTT17=
EXTT18=
EXTT19=
PLAYORDER=
